# xmcd CD database file
#
# Track frame offsets:
#	150
#	55244
#	99158
#	105889
#	166030
#
# Disc length: 2603 seconds
#
# Revision: 0
# Processed by: cddbd v1.5.2PL0 Copyright (c) Steve Scherf et al.
# Submitted via: CDex 2.07
#
DISCID=290a2905
DTITLE=JD Walter - Live in Portugal [CD1)
DYEAR=2008
DGENRE=Jazz
TTITLE0=It Never Entered My Mind
TTITLE1=Never Let Me Go
TTITLE2=So Wonderful intro
TTITLE3=So Wonderful
TTITLE4=Shower The People
EXTD=YEAR: 2008
EXTT0=
EXTT1=
EXTT2=
EXTT3=
EXTT4=
PLAYORDER=
